<svg xmlns="http://www.w3.org/2000/svg" width="24" height="24" id="notification-bell">
  <path fill="none" d="M0 0h24v24H0Z"></path>
  <path fill="#525863" d="M9.899 19.5v-.077c-4.351-.325-7.5-1.624-7.5-2.923 0-1.5 2.7-1.2 2.7-7.5 0-4.142 2.758-6.6 6.9-6.6s6.9 2.458 6.9 6.6c0 6.3 2.7 6 2.7 7.5 0 1.3-3.15 2.6-7.5 2.923v.077a2.1 2.1 0 0 1-2.1 2.1 2.1 2.1 0 0 1-2.1-2.1Zm-3-10.5c0 4.36-1.182 6.133-2.351 7.378a17.481 17.481 0 0 0 7.451 1.322 17.48 17.48 0 0 0 7.451-1.322C18.281 15.133 17.099 13.36 17.099 9c0-3.05-1.859-4.8-5.1-4.8s-5.1 1.75-5.1 4.8Z"></path>
</svg>
