<svg width="25" height="24" viewBox="0 0 25 24" fill="none" xmlns="http://www.w3.org/2000/svg">
<path d="M12.25 17.1429C14.6169 17.1429 16.5357 15.2241 16.5357 12.8571C16.5357 10.4902 14.6169 8.57143 12.25 8.57143C9.88306 8.57143 7.96428 10.4902 7.96428 12.8571C7.96428 15.2241 9.88306 17.1429 12.25 17.1429Z" stroke="#565D6D" stroke-width="2.05714" stroke-miterlimit="10" stroke-linecap="square"/>
<path d="M19.9643 20.5714L4.53571 20.5714C4.08106 20.5714 3.64502 20.3908 3.32353 20.0693C3.00204 19.7478 2.82143 19.3118 2.82143 18.8571L2.82143 7.71429C2.82143 7.25963 3.00204 6.8236 3.32353 6.5021C3.64502 6.18061 4.08106 6 4.53571 6L7.96428 6L9.67857 3.42857L14.8214 3.42857L16.5357 6H19.9643C20.4189 6 20.855 6.18061 21.1765 6.5021C21.498 6.8236 21.6786 7.25963 21.6786 7.71429L21.6786 18.8571C21.6786 19.3118 21.498 19.7478 21.1765 20.0693C20.855 20.3908 20.4189 20.5714 19.9643 20.5714Z" stroke="#565D6D" stroke-width="2.05714" stroke-miterlimit="10" stroke-linecap="square"/>
<path d="M5.39286 9.42856C5.86625 9.42856 6.25001 9.04481 6.25001 8.57142C6.25001 8.09804 5.86625 7.71428 5.39286 7.71428C4.91948 7.71428 4.53572 8.09804 4.53572 8.57142C4.53572 9.04481 4.91948 9.42856 5.39286 9.42856Z" fill="#565D6D"/>
</svg>
