<svg width="28" height="28" viewBox="0 0 28 28" fill="none" xmlns="http://www.w3.org/2000/svg">
<path d="M11 14C8.239 14 6 10.761 6 8L6 7C6 4.239 8.239 2 11 2C13.761 2 16 4.239 16 7V8C16 10.761 13.761 14 11 14Z" fill="#9095A1"/>
<path d="M20 26C23.314 26 26 23.314 26 20C26 16.686 23.314 14 20 14C16.686 14 14 16.686 14 20C14 23.314 16.686 26 20 26ZM19 16H21V19L24 19V21L19 21V16Z" fill="#9095A1"/>
<path d="M12 20C12 18.585 12.371 17.259 13.015 16.106C12.368 16.039 11.694 16 11 16C8.176 16 5.671 16.638 4.026 17.193C2.81 17.604 2 18.749 2 20.032L2 24L13.079 24C12.397 22.822 12 21.459 12 20Z" fill="#9095A1"/>
</svg>
