<svg width="96" height="96" viewBox="0 0 96 96" fill="none" xmlns="http://www.w3.org/2000/svg">
<path d="M48 0C54.5625 -2.86856e-07 61.0553 1.34568 67.0772 3.95389C73.0991 6.5621 78.5223 10.3774 83.0116 15.1642C87.5008 19.9509 90.9609 25.6074 93.1779 31.784C95.3949 37.9607 96.3218 44.5264 95.9014 51.0754C95.4809 57.6244 93.722 64.0176 90.7333 69.8601C87.7447 75.7025 83.5897 80.8701 78.5252 85.0434C73.4606 89.2168 67.5941 92.3073 61.2881 94.124C54.9821 95.9408 48.3705 96.4451 41.8619 95.6059L44.0102 78.9438C48.2408 79.4893 52.5384 79.1615 56.6373 77.9806C60.7362 76.7997 64.5494 74.7909 67.8414 72.0782C71.1333 69.3655 73.834 66.0066 75.7767 62.209C77.7193 58.4115 78.8626 54.2558 79.1359 49.999C79.4092 45.7421 78.8067 41.4744 77.3656 37.4596C75.9246 33.4448 73.6755 29.7681 70.7575 26.6567C67.8395 23.5453 64.3144 21.0654 60.4002 19.37C56.4859 17.6747 52.2656 16.8 48 16.8L48 0Z" fill="#6D31ED"/>
<path d="M41.8619 95.6059C29.764 94.0461 18.7138 87.9388 10.9566 78.5252C3.19936 69.1115 -0.682909 57.0976 0.0986211 44.9246C0.880151 32.7517 6.26685 21.3329 15.1642 12.9884C24.0615 4.64403 35.802 -1.4546e-07 48 0L48 16.8C40.0713 16.8 32.44 19.8186 26.6567 25.2425C20.8735 30.6664 17.3721 38.0886 16.8641 46.001C16.3561 53.9134 18.8796 61.7225 23.9218 67.8414C28.964 73.9602 36.1466 77.9299 44.0102 78.9438L41.8619 95.6059Z" fill="#D3C1FA"/>
</svg>
