<svg width="28" height="28" viewBox="0 0 28 28" fill="none" xmlns="http://www.w3.org/2000/svg">
<path d="M14 2C7.383 2 2 7.383 2 14C2 20.617 7.383 26 14 26C20.617 26 26 20.617 26 14C26 7.383 20.617 2 14 2ZM7 14C7 14.552 6.553 15 6 15C5.447 15 5 14.552 5 14C5 12.613 5.325 11.304 5.887 10.129L7.413 11.655C7.15 12.389 7 13.177 7 14ZM15.414 15.414C15.037 15.792 14.534 16 14 16C13.466 16 12.963 15.792 12.586 15.414C11.983 14.812 8.033 8.946 7.585 8.279C7.452 8.081 7.478 7.816 7.647 7.647C7.816 7.479 8.081 7.453 8.279 7.585C8.946 8.033 14.812 11.983 15.414 12.586C15.792 12.963 16 13.466 16 14C16 14.534 15.792 15.037 15.414 15.414ZM22 15C21.447 15 21 14.552 21 14C21 10.14 17.859 7 14 7C13.177 7 12.39 7.15 11.655 7.413L10.13 5.887C11.304 5.324 12.613 5 14 5C18.963 5 23 9.038 23 14C23 14.552 22.553 15 22 15Z" fill="#9095A1"/>
</svg>
