<svg width="28" height="28" viewBox="0 0 28 28" fill="none" xmlns="http://www.w3.org/2000/svg">
<path d="M26 13.1C26 7.5 20.6 3 14 3C7.4 3 2 7.5 2 13C2 18.5 7.4 23 14 23C15.0075 22.9993 16.0124 22.8988 17 22.7L22.6 24.9C22.7 24.9 22.8 25 23 25C23.2125 24.9793 23.4176 24.9109 23.6 24.8C23.7329 24.6921 23.8384 24.5544 23.9079 24.398C23.9774 24.2415 24.009 24.0709 24 23.9L23.5 19.2C25.0602 17.5466 25.9511 15.3728 26 13.1ZM15.206 8L14.733 14.6H13.267L12.821 8H15.206ZM14 19C13.7099 19 13.4262 18.914 13.185 18.7528C12.9437 18.5916 12.7557 18.3625 12.6447 18.0944C12.5336 17.8263 12.5046 17.5314 12.5612 17.2468C12.6178 16.9622 12.7575 16.7008 12.9627 16.4957C13.1678 16.2905 13.4292 16.1508 13.7138 16.0942C13.9984 16.0376 14.2933 16.0666 14.5614 16.1777C14.8295 16.2887 15.0586 16.4767 15.2198 16.718C15.381 16.9592 15.467 17.2429 15.467 17.533C15.467 17.9221 15.3124 18.2952 15.0373 18.5703C14.7622 18.8454 14.3891 19 14 19Z" fill="#9095A1"/>
</svg>
