<svg width="24" height="24" viewBox="0 0 24 24" fill="none" xmlns="http://www.w3.org/2000/svg">
<path d="M21.4285 1.71423L11.1428 1.71423C10.6696 1.71423 10.2856 2.09823 10.2856 2.57138L10.2856 11.9999L14.5714 8.57138L21.4285 8.57138C21.9016 8.57138 22.2856 8.18738 22.2856 7.71423V2.57138C22.2856 2.09823 21.9016 1.71423 21.4285 1.71423Z" fill="#F3F4F6"/>
<path d="M10.1864 18.4277C9.44836 17.8414 8.19693 17.1428 6.42864 17.1428C4.66036 17.1428 3.40893 17.8414 2.67178 18.4268C2.06321 18.9094 1.71436 19.6388 1.71436 20.4308L1.71436 22.2857L11.1429 22.2857L11.1429 20.4308C11.1429 19.6388 10.7941 18.9094 10.1864 18.4277Z" fill="#F3F4F6"/>
<path d="M6.42871 16.2858C8.08557 16.2858 9.42871 14.9426 9.42871 13.2858C9.42871 11.6289 8.08557 10.2858 6.42871 10.2858C4.77186 10.2858 3.42871 11.6289 3.42871 13.2858C3.42871 14.9426 4.77186 16.2858 6.42871 16.2858Z" fill="#F3F4F6"/>
<path d="M21.3289 18.4277C20.5909 17.8414 19.3395 17.1428 17.5712 17.1428C15.8029 17.1428 14.5515 17.8414 13.8144 18.4268C13.2058 18.9094 12.8569 19.6388 12.8569 20.4308L12.8569 22.2857L22.2855 22.2857V20.4308C22.2855 19.6388 21.9366 18.9094 21.3289 18.4277Z" fill="#F3F4F6"/>
<path d="M17.5713 16.2858C19.2281 16.2858 20.5713 14.9426 20.5713 13.2858C20.5713 11.6289 19.2281 10.2858 17.5713 10.2858C15.9144 10.2858 14.5713 11.6289 14.5713 13.2858C14.5713 14.9426 15.9144 16.2858 17.5713 16.2858Z" fill="#F3F4F6"/>
</svg>
