<svg width="28" height="28" viewBox="0 0 28 28" fill="none" xmlns="http://www.w3.org/2000/svg">
<path d="M23 26L9 26C8.73478 26 8.48043 25.8946 8.29289 25.7071C8.10536 25.5196 8 25.2652 8 25C8 24.7348 8.10536 24.4804 8.29289 24.2929C8.48043 24.1054 8.73478 24 9 24L23 24C23.2652 24 23.5196 24.1054 23.7071 24.2929C23.8946 24.4804 24 24.7348 24 25C24 25.2652 23.8946 25.5196 23.7071 25.7071C23.5196 25.8946 23.2652 26 23 26Z" fill="#9095A1"/>
<path d="M22.8111 11.346C22.2969 10.8874 21.6721 10.5706 20.9983 10.4266C20.3245 10.2827 19.6249 10.3166 18.9681 10.525L8.51612 13.791L4.61012 2.72498L2.72412 3.38998L8.58612 20C8.79358 20.5846 9.17686 21.0906 9.68338 21.4487C10.1899 21.8068 10.7948 21.9994 11.4151 22H15.0261C14.3643 21.1396 14.0038 20.0854 14.0001 19C13.9968 17.8231 14.4098 16.683 15.166 15.7812C15.9222 14.8794 16.9729 14.274 18.1323 14.0721C19.2918 13.8701 20.4852 14.0847 21.5018 14.6778C22.5183 15.2709 23.2924 16.2043 23.6871 17.313L24.0971 15.058C24.2231 14.3808 24.1708 13.6826 23.9453 13.0318C23.7198 12.381 23.329 11.8001 22.8111 11.346Z" fill="#9095A1"/>
<path d="M19 22C20.6569 22 22 20.6569 22 19C22 17.3431 20.6569 16 19 16C17.3431 16 16 17.3431 16 19C16 20.6569 17.3431 22 19 22Z" fill="#9095A1"/>
</svg>
