<svg width="24" height="24" viewBox="0 0 24 24" fill="none" xmlns="http://www.w3.org/2000/svg">
<path d="M10.2856 18C6.02472 18 2.57129 14.5466 2.57129 10.2857C2.57129 6.02484 6.02472 2.57141 10.2856 2.57141C14.5464 2.57141 17.9999 6.02484 17.9999 10.2857C17.9947 14.544 14.5439 17.9948 10.2856 18ZM10.2856 4.2857C6.97186 4.2857 4.28557 6.97198 4.28557 10.2857C4.28557 13.5994 6.97186 16.2857 10.2856 16.2857C13.5993 16.2857 16.2856 13.5994 16.2856 10.2857C16.2821 6.9737 13.5976 4.28913 10.2856 4.2857Z" fill="#F3F4F6"/>
<path d="M21.1774 19.9654L17.5294 16.3174C17.1634 16.7571 16.7571 17.1634 16.3174 17.5294L19.9654 21.1774C20.3057 21.5065 20.8482 21.4971 21.1774 21.156C21.498 20.8234 21.498 20.2971 21.1774 19.9654Z" fill="#F3F4F6"/>
<path d="M6.85714 11.1429C6.384 11.1429 6 10.7589 6 10.2857C6 7.92257 7.92257 6 10.2857 6C10.7589 6 11.1429 6.384 11.1429 6.85714C11.1429 7.33029 10.7589 7.71429 10.2857 7.71429C8.868 7.71429 7.71429 8.868 7.71429 10.2857C7.71429 10.7589 7.33029 11.1429 6.85714 11.1429Z" fill="#F3F4F6"/>
</svg>
